<?xml version="1.0" encoding="UTF-8" standalone="no"?>
<!-- Created with Inkscape (http://www.inkscape.org/) -->

<svg
   xmlns:dc="http://purl.org/dc/elements/1.1/"
   xmlns:cc="http://creativecommons.org/ns#"
   xmlns:rdf="http://www.w3.org/1999/02/22-rdf-syntax-ns#"
   xmlns:svg="http://www.w3.org/2000/svg"
   xmlns="http://www.w3.org/2000/svg"
   xmlns:sodipodi="http://sodipodi.sourceforge.net/DTD/sodipodi-0.dtd"
   xmlns:inkscape="http://www.inkscape.org/namespaces/inkscape"
   width="100mm"
   height="100mm"
   viewBox="0 0 100 100"
   id="svg2"
   version="1.1"
   inkscape:version="0.91+devel r13724 custom"
   sodipodi:docname="dip8.svg">
  <defs
     id="defs4" />
  <sodipodi:namedview
     id="base"
     pagecolor="#ffffff"
     bordercolor="#666666"
     borderopacity="1.0"
     inkscape:pageopacity="0.0"
     inkscape:pageshadow="2"
     inkscape:zoom="2.8"
     inkscape:cx="127.64428"
     inkscape:cy="7.1583257"
     inkscape:document-units="mm"
     inkscape:current-layer="layer3"
     showgrid="true"
     inkscape:window-width="1680"
     inkscape:window-height="1002"
     inkscape:window-x="0"
     inkscape:window-y="22"
     inkscape:window-maximized="0"
     inkscape:snap-bbox="true"
     inkscape:bbox-nodes="true"
     inkscape:snap-nodes="false">
    <inkscape:grid
       type="xygrid"
       id="grid3339"
       spacingx="1mm"
       spacingy="1mm"
       units="mm" />
  </sodipodi:namedview>
  <metadata
     id="metadata7">
    <rdf:RDF>
      <cc:Work
         rdf:about="">
        <dc:format>image/svg+xml</dc:format>
        <dc:type
           rdf:resource="http://purl.org/dc/dcmitype/StillImage" />
        <dc:title />
      </cc:Work>
    </rdf:RDF>
  </metadata>
  <g
     inkscape:groupmode="layer"
     id="layer3"
     inkscape:label="shape">
    <path
       style="display:inline;fill:#000000;fill-opacity:0.39215686;stroke:none"
       d="m 7.7399302,35.479829 0,10.322865 -7.7399302,0 0,15.48874 c 3.5630381,0 6.4529012,2.88102 6.4529012,6.44402 0,3.56302 -2.8898631,6.45291 -6.4529012,6.45291 l 0,15.488753 7.7399302,0 0,10.32288 10.3228678,0 0,-10.32288 7.739931,0 0,10.32288 10.322867,0 0,-10.32288 7.748807,0 0,10.32288 10.313991,0 0,-10.32288 7.748807,0 0,10.32288 10.322866,0 0,-10.32288 7.739931,0 0,-43.874423 -7.739931,0 0,-10.322865 -10.322866,0 0,10.322865 -7.748807,0 0,-10.322865 -10.313991,0 0,10.322865 -7.748807,0 0,-10.322865 -10.322867,0 0,10.322865 -7.739931,0 0,-10.322865 -10.3228678,0 z"
       id="path3054-11-3"
       inkscape:connector-curvature="0" />
  </g>
  <g
     inkscape:groupmode="layer"
     id="layer2"
     inkscape:label="struts" />
  <g
     inkscape:groupmode="layer"
     id="layer4"
     inkscape:label="fillings" />
</svg>
