<?xml version="1.0" encoding="UTF-8" standalone="no"?>
<!-- Created with Inkscape (http://www.inkscape.org/) -->

<svg
   xmlns:dc="http://purl.org/dc/elements/1.1/"
   xmlns:cc="http://creativecommons.org/ns#"
   xmlns:rdf="http://www.w3.org/1999/02/22-rdf-syntax-ns#"
   xmlns:svg="http://www.w3.org/2000/svg"
   xmlns="http://www.w3.org/2000/svg"
   xmlns:sodipodi="http://sodipodi.sourceforge.net/DTD/sodipodi-0.dtd"
   xmlns:inkscape="http://www.inkscape.org/namespaces/inkscape"
   width="744.09448819"
   height="1052.3622047"
   id="svg2"
   version="1.1"
   inkscape:version="0.48.5 r10040"
   sodipodi:docname="dip8.svg">
  <defs
     id="defs4" />
  <sodipodi:namedview
     id="base"
     pagecolor="#ffffff"
     bordercolor="#666666"
     borderopacity="1.0"
     inkscape:pageopacity="0.0"
     inkscape:pageshadow="2"
     inkscape:zoom="0.7"
     inkscape:cx="550.08542"
     inkscape:cy="269.852"
     inkscape:document-units="mm"
     inkscape:current-layer="layer1"
     showgrid="true"
     inkscape:window-width="1680"
     inkscape:window-height="1002"
     inkscape:window-x="0"
     inkscape:window-y="0"
     inkscape:window-maximized="1">
    <inkscape:grid
       type="xygrid"
       id="grid3050"
       empspacing="5"
       visible="true"
       enabled="true"
       snapvisiblegridlinesonly="true" />
  </sodipodi:namedview>
  <metadata
     id="metadata7">
    <rdf:RDF>
      <cc:Work
         rdf:about="">
        <dc:format>image/svg+xml</dc:format>
        <dc:type
           rdf:resource="http://purl.org/dc/dcmitype/StillImage" />
        <dc:title></dc:title>
      </cc:Work>
    </rdf:RDF>
  </metadata>
  <g
     inkscape:label="Layer 1"
     inkscape:groupmode="layer"
     id="layer1">
    <path
       style="fill:#000000;fill-opacity:1;stroke:#000000;stroke-width:1.8170805px;stroke-linecap:butt;stroke-linejoin:miter;stroke-opacity:1"
       d="M 28.15625 824.3125 L 28.15625 860.65625 L 0.90625 860.65625 L 0.90625 915.1875 C 13.45065 915.1875 23.625 925.3307 23.625 937.875 C 23.625 950.4193 13.45065 960.59375 0.90625 960.59375 L 0.90625 1015.125 L 28.15625 1015.125 L 28.15625 1051.4688 L 64.5 1051.4688 L 64.5 1015.125 L 91.75 1015.125 L 91.75 1051.4688 L 128.09375 1051.4688 L 128.09375 1015.125 L 155.375 1015.125 L 155.375 1051.4688 L 191.6875 1051.4688 L 191.6875 1015.125 L 218.96875 1015.125 L 218.96875 1051.4688 L 255.3125 1051.4688 L 255.3125 1015.125 L 282.5625 1015.125 L 282.5625 860.65625 L 255.3125 860.65625 L 255.3125 824.3125 L 218.96875 824.3125 L 218.96875 860.65625 L 191.6875 860.65625 L 191.6875 824.3125 L 155.375 824.3125 L 155.375 860.65625 L 128.09375 860.65625 L 128.09375 824.3125 L 91.75 824.3125 L 91.75 860.65625 L 64.5 860.65625 L 64.5 824.3125 L 28.15625 824.3125 z "
       id="path3054-11-3" />
  </g>
</svg>
