<?xml version="1.0" encoding="UTF-8" standalone="no"?>
<!-- Created with Inkscape (http://www.inkscape.org/) -->

<svg
   xmlns:dc="http://purl.org/dc/elements/1.1/"
   xmlns:cc="http://creativecommons.org/ns#"
   xmlns:rdf="http://www.w3.org/1999/02/22-rdf-syntax-ns#"
   xmlns:svg="http://www.w3.org/2000/svg"
   xmlns="http://www.w3.org/2000/svg"
   xmlns:sodipodi="http://sodipodi.sourceforge.net/DTD/sodipodi-0.dtd"
   xmlns:inkscape="http://www.inkscape.org/namespaces/inkscape"
   width="744.09448819"
   height="1052.3622047"
   id="svg2"
   version="1.1"
   inkscape:version="0.48.5 r10040"
   sodipodi:docname="dip8.svg">
  <defs
     id="defs4" />
  <sodipodi:namedview
     id="base"
     pagecolor="#ffffff"
     bordercolor="#666666"
     borderopacity="1.0"
     inkscape:pageopacity="0.0"
     inkscape:pageshadow="2"
     inkscape:zoom="2.8"
     inkscape:cx="111.86838"
     inkscape:cy="107.15429"
     inkscape:document-units="mm"
     inkscape:current-layer="layer3"
     showgrid="true"
     inkscape:window-width="1680"
     inkscape:window-height="1002"
     inkscape:window-x="0"
     inkscape:window-y="22"
     inkscape:window-maximized="0"
     inkscape:snap-nodes="false"
     inkscape:snap-global="false">
    <inkscape:grid
       type="xygrid"
       id="grid3050"
       empspacing="5"
       visible="true"
       enabled="true"
       snapvisiblegridlinesonly="true" />
  </sodipodi:namedview>
  <metadata
     id="metadata7">
    <rdf:RDF>
      <cc:Work
         rdf:about="">
        <dc:format>image/svg+xml</dc:format>
        <dc:type
           rdf:resource="http://purl.org/dc/dcmitype/StillImage" />
        <dc:title />
      </cc:Work>
    </rdf:RDF>
  </metadata>
  <g
     inkscape:label="shape"
     inkscape:groupmode="layer"
     id="layer1"
     style="display:inline">
    <path
       style="fill:#000000;fill-opacity:0.39215686;stroke:none"
       d="m 27.25,825.20586 0,36.34375 -27.25,0 0,54.53125 c 12.5444,0 22.71875,10.1432 22.71875,22.6875 0,12.5443 -10.17435,22.71875 -22.71875,22.71875 l 0,54.53129 27.25,0 0,36.3438 36.34375,0 0,-36.3438 27.25,0 0,36.3438 36.34375,0 0,-36.3438 27.28125,0 0,36.3438 36.3125,0 0,-36.3438 27.28125,0 0,36.3438 36.34375,0 0,-36.3438 27.25,0 0,-154.46879 -27.25,0 0,-36.34375 -36.34375,0 0,36.34375 -27.28125,0 0,-36.34375 -36.3125,0 0,36.34375 -27.28125,0 0,-36.34375 -36.34375,0 0,36.34375 -27.25,0 0,-36.34375 -36.34375,0 z"
       id="path3054-11-3"
       inkscape:connector-curvature="0" />
  </g>
  <g
     inkscape:groupmode="layer"
     id="layer2"
     inkscape:label="struts"
     style="display:inline">
    <rect
       style="color:#000000;fill:#ff0000;fill-opacity:0.39215686;fill-rule:nonzero;stroke:none;stroke-width:14.17322826;marker:none;visibility:visible;display:inline;overflow:visible;enable-background:accumulate"
       id="rect3756"
       width="4.2857141"
       height="10.714286"
       x="-5.7142859"
       y="-887.005"
       transform="scale(1,-1)" />
  </g>
  <g
     inkscape:groupmode="layer"
     id="layer3"
     inkscape:label="fillings">
    <rect
       style="color:#000000;fill:#ff0000;fill-opacity:0.39215686;fill-rule:nonzero;stroke:none;stroke-width:14.17322826;marker:none;visibility:visible;display:inline;overflow:visible;enable-background:accumulate"
       id="rect3756-3"
       width="0.35714272"
       height="2.1428573"
       x="-0.42857146"
       y="-900.2193"
       transform="scale(1,-1)" />
  </g>
</svg>
