<?xml version="1.0" encoding="UTF-8" standalone="no"?>
<!-- Generator: Adobe Illustrator 15.1.0, SVG Export Plug-In . SVG Version: 6.00 Build 0)  -->

<svg
   xmlns:dc="http://purl.org/dc/elements/1.1/"
   xmlns:cc="http://creativecommons.org/ns#"
   xmlns:rdf="http://www.w3.org/1999/02/22-rdf-syntax-ns#"
   xmlns:svg="http://www.w3.org/2000/svg"
   xmlns="http://www.w3.org/2000/svg"
   xmlns:sodipodi="http://sodipodi.sourceforge.net/DTD/sodipodi-0.dtd"
   xmlns:inkscape="http://www.inkscape.org/namespaces/inkscape"
   version="1.1"
   id="Ebene_2"
   x="0px"
   y="0px"
   width="626.03149"
   height="670.09412"
   viewBox="0 0 626.0315 670.09412"
   enable-background="new 0 0 4856 968"
   xml:space="preserve"
   inkscape:version="0.48.5 r10040"
   sodipodi:docname="eiche.svg"><metadata
     id="metadata41"><rdf:RDF><cc:Work
         rdf:about=""><dc:format>image/svg+xml</dc:format><dc:type
           rdf:resource="http://purl.org/dc/dcmitype/StillImage" /><dc:title /></cc:Work></rdf:RDF></metadata><defs
     id="defs39"><inkscape:path-effect
       effect="spiro"
       id="path-effect3201"
       is_visible="true" /><inkscape:path-effect
       effect="spiro"
       id="path-effect3197"
       is_visible="true" /><inkscape:path-effect
       effect="spiro"
       id="path-effect3193"
       is_visible="true" /><inkscape:path-effect
       effect="spiro"
       id="path-effect3189"
       is_visible="true" /><inkscape:path-effect
       effect="spiro"
       id="path-effect3185"
       is_visible="true" /><inkscape:path-effect
       effect="spiro"
       id="path-effect3181"
       is_visible="true" /><inkscape:path-effect
       effect="spiro"
       id="path-effect3177"
       is_visible="true" /><inkscape:path-effect
       effect="spiro"
       id="path-effect3173"
       is_visible="true" /><inkscape:path-effect
       effect="spiro"
       id="path-effect3152"
       is_visible="true" /><inkscape:path-effect
       is_visible="true"
       id="path-effect3144"
       effect="spiro" /><inkscape:path-effect
       effect="spiro"
       id="path-effect3140"
       is_visible="true" /><inkscape:path-effect
       is_visible="true"
       id="path-effect3136"
       effect="spiro" /><inkscape:path-effect
       effect="spiro"
       id="path-effect3131"
       is_visible="true" /><inkscape:path-effect
       is_visible="true"
       id="path-effect3127"
       effect="spiro" /><inkscape:path-effect
       effect="spiro"
       id="path-effect3123"
       is_visible="true" /><inkscape:path-effect
       is_visible="true"
       id="path-effect3119"
       effect="spiro" /><inkscape:path-effect
       effect="spiro"
       id="path-effect3115"
       is_visible="true" /><inkscape:path-effect
       is_visible="true"
       id="path-effect3111"
       effect="spiro" /><inkscape:path-effect
       effect="spiro"
       id="path-effect3107"
       is_visible="true" /><inkscape:path-effect
       is_visible="true"
       id="path-effect3103"
       effect="spiro" /><inkscape:path-effect
       effect="spiro"
       id="path-effect3099"
       is_visible="true" /><inkscape:path-effect
       is_visible="true"
       id="path-effect3095"
       effect="spiro" /><inkscape:path-effect
       effect="spiro"
       id="path-effect3091"
       is_visible="true" /><inkscape:path-effect
       is_visible="true"
       id="path-effect3087"
       effect="spiro" /><inkscape:path-effect
       effect="spiro"
       id="path-effect3083"
       is_visible="true" /><inkscape:path-effect
       is_visible="true"
       id="path-effect3079"
       effect="spiro" /><inkscape:path-effect
       effect="spiro"
       id="path-effect3075"
       is_visible="true" /><inkscape:path-effect
       is_visible="true"
       id="path-effect3071"
       effect="spiro" /><inkscape:path-effect
       effect="spiro"
       id="path-effect3067"
       is_visible="true" /><inkscape:path-effect
       is_visible="true"
       id="path-effect3063"
       effect="spiro" /><inkscape:path-effect
       effect="spiro"
       id="path-effect3059"
       is_visible="true" /><inkscape:path-effect
       is_visible="true"
       id="path-effect3055"
       effect="spiro" /><inkscape:path-effect
       effect="spiro"
       id="path-effect3051"
       is_visible="true" /><inkscape:path-effect
       is_visible="true"
       id="path-effect3047"
       effect="spiro" /><inkscape:path-effect
       effect="spiro"
       id="path-effect3043"
       is_visible="true" /><inkscape:path-effect
       is_visible="true"
       id="path-effect3039"
       effect="spiro" /><inkscape:path-effect
       effect="spiro"
       id="path-effect3033"
       is_visible="true" /><inkscape:path-effect
       effect="spiro"
       id="path-effect3090"
       is_visible="true" /><inkscape:path-effect
       effect="spiro"
       id="path-effect3086"
       is_visible="true" /><inkscape:path-effect
       is_visible="true"
       id="path-effect3082"
       effect="spiro" /><inkscape:path-effect
       effect="spiro"
       id="path-effect3078"
       is_visible="true" /><inkscape:path-effect
       is_visible="true"
       id="path-effect3074"
       effect="spiro" /><inkscape:path-effect
       is_visible="true"
       id="path-effect3038"
       effect="spiro" /><inkscape:path-effect
       effect="spiro"
       id="path-effect3774"
       is_visible="true" /><inkscape:path-effect
       effect="spiro"
       id="path-effect3768"
       is_visible="true" /><inkscape:path-effect
       effect="spiro"
       id="path-effect3764"
       is_visible="true" /><inkscape:path-effect
       effect="spiro"
       id="path-effect3760"
       is_visible="true" /><inkscape:path-effect
       is_visible="true"
       id="path-effect3079-2"
       effect="spiro" /></defs><sodipodi:namedview
     pagecolor="#ffffff"
     bordercolor="#666666"
     borderopacity="1"
     objecttolerance="10"
     gridtolerance="10"
     guidetolerance="10"
     inkscape:pageopacity="0"
     inkscape:pageshadow="2"
     inkscape:window-width="1680"
     inkscape:window-height="1002"
     id="namedview37"
     showgrid="true"
     fit-margin-top="20"
     fit-margin-left="20"
     fit-margin-right="20"
     fit-margin-bottom="20"
     inkscape:zoom="2.8284271"
     inkscape:cx="156.58722"
     inkscape:cy="119.9967"
     inkscape:window-x="0"
     inkscape:window-y="22"
     inkscape:window-maximized="0"
     inkscape:current-layer="layer1"
     inkscape:document-units="mm"
     units="mm"
     inkscape:snap-nodes="true"
     inkscape:snap-bbox="true"
     showguides="true"
     inkscape:guide-bbox="true"
     inkscape:snap-global="false"
     inkscape:bbox-nodes="true"><inkscape:grid
       type="xygrid"
       id="grid2988"
       empspacing="5"
       visible="true"
       enabled="true"
       snapvisiblegridlinesonly="true"
       units="mm"
       spacingx="1mm"
       spacingy="1mm" /></sodipodi:namedview><g
     inkscape:groupmode="layer"
     id="layer1"
     inkscape:label="shape"
     style="display:inline"><path
       inkscape:connector-curvature="0"
       style="color:#000000;fill:#000000;fill-opacity:0.39215686;fill-rule:nonzero;stroke:none;marker:none;visibility:visible;display:inline;overflow:visible;enable-background:accumulate"
       d="m 37.213427,496.41756 c -0.867351,0.0237 -1.380157,0.0886 -2.142809,0.27162 -3.868395,0.92824 -7.517887,4.03637 -9.59737,8.20907 -1.084921,2.17703 -1.516554,4.14762 -1.44866,6.54915 0.06403,2.26298 0.592627,4.43856 1.659923,6.88113 0.571254,1.30737 1.265066,2.61764 2.565334,4.85905 0.415862,0.71685 1.025188,1.77161 1.358119,2.35407 1.761696,3.082 2.578933,5.11679 2.9275,7.27348 0.136981,1.16969 0.238417,2.22881 -0.211263,3.28966 -0.872528,1.13602 -1.879713,2.1108 -2.867139,2.74642 -1.859761,1.36476 -2.972254,0.50572 -4.738325,-0.33198 -2.479516,-1.29359 -4.390423,-2.69216 -8.359973,-6.09645 -1.708037,-1.46481 -2.400826,-2.3308 -3.199123,-2.68605 -1.649085,-0.84449 -2.557128,-0.68344 -3.5009277,-0.66393 -1.219598,0.0274 -1.974548,0.14125 -2.927498,0.4527 -1.97432,0.64528 -3.5321,2.06173 -4.43652,4.04418 -1.08814,2.38512 -1.34849997,5.50962 -0.75451,9.0843 l 0.12072,0.63379 -0.1509,0.12072 c -0.18238,0.15032 -0.93669997,0.95106 -1.23739997,1.32794 -1.61555003,2.02479 -2.51834003,4.34918 -2.77660003,7.06222 -0.0624,0.656 -0.0281,2.44861 0.0604,3.0784 0.42037,2.99414 1.53002003,5.58057 3.35003003,7.87708 0.50926997,0.64261 1.65204997,1.78925 2.26352997,2.26353 1.87106,1.45127 3.60021,2.21642 8.0279877,3.53111 3.880911,1.15233 4.978811,1.52703 6.458608,2.17299 2.1837,0.95322 3.518408,1.87296 4.677963,3.25949 0.681363,0.81473 1.572086,2.03532 2.082448,2.89732 1.428707,2.41305 2.161111,5.29442 2.17299,8.39015 l 0,0.87523 -0.241443,0.39235 c -1.057715,1.54026 -2.666935,2.51436 -4.828866,2.95768 -0.748774,0.15354 -1.279321,0.22304 -2.293711,0.27162 -2.192923,0.1049 -4.882534,-0.16613 -8.420334,-0.87523 -1.7205157,-0.34485 -2.2564327,-0.51212 -3.5612927,-0.99595 -1.80877,-0.67071 -2.24153,-0.7831 -3.04822,-0.81488 -0.64781,-0.0255 -1.00098,0.0276 -1.62974,0.24145 -1.84238997,0.62646 -3.08372997,2.19 -3.56128997,4.49688 -0.28505003,1.37561 -0.28128003,3.16818 0,4.88923 0.31656,1.937 1.06717,4.03868 1.96173,5.5532 l 0.18107997,0.36216 -0.30179997,0.7847 c -0.16467,0.43473 -0.39387,1.11929 -0.54325,1.50902 -0.52363,1.36615 -0.73915,2.09995 -0.81487,3.04822 -0.0747,0.9366 0.0963,2.43842 0.36216,3.35002 0.45684,1.56614 1.50008997,3.29099 3.07840997,5.07031 3.41133,3.84579 8.9662037,7.38204 12.6757677,8.08835 1.159246,0.22075 2.605124,0.30224 6.066262,0.27163 2.891815,-0.0256 4.274522,-0.0207 5.221211,0.0905 3.310487,0.38894 4.842589,1.69817 5.13067,4.34598 0.140993,1.29591 -0.01748,2.40467 -0.482887,3.35002 -0.295893,0.601 -0.650361,1.09935 -1.177036,1.59956 -1.016312,0.96525 -2.105327,1.57287 -5.040128,2.83696 -1.731583,0.74584 -2.806788,1.28625 -3.380206,1.72029 -0.899801,0.68107 -1.509619,1.69328 -1.901366,3.13876 -0.620181,2.28834 -0.368916,5.46658 0.573428,7.36402 0.281117,0.56603 0.549496,0.89856 0.965773,1.20722 0.579599,0.42974 1.176814,0.67825 2.414433,0.96577 1.462508,0.33977 2.137671,0.55062 2.655876,0.84505 0.717434,0.40761 0.922757,0.69244 1.358118,1.96173 0.136657,0.3984 0.300935,0.8106 0.362165,0.93559 0.199915,0.40828 0.859509,1.06968 1.47884,1.44866 0.897281,0.54908 1.844183,0.78722 3.65183,0.96577 2.676901,0.26441 3.644789,0.49831 4.889226,1.11668 0.883692,0.43911 1.567324,0.92769 2.20317,1.59956 0.51158,0.54054 0.856959,1.01849 1.810825,2.44461 0.790958,1.18256 1.108186,1.63557 1.47884,2.08245 0.455558,1.07825 0.56744,2.4229 1.026134,3.53111 0.439871,1.03973 1.063355,2.10482 1.871185,3.25948 2.018851,2.59273 8.347066,2.37841 9.627631,0.51307 1.08986,-1.81412 1.20033,-2.15151 1.93155,-4.82887 0.571971,-1.80107 1.029825,-3.23344 2.4414,-4.00321 0.81594,-0.4585 1.65995,-0.60216 2.3271,-0.79538 4.46834,-1.29415 7.45206,-4.59641 8.11853,-8.9334 0.165776,-1.99634 -0.50926,-4.04277 -0.12068,-5.61356 0.211317,-0.69564 1.02705,-0.87096 1.6901,-1.11668 0.4042,-0.14979 1.15553,-0.33824 1.90137,-0.51306 1.30132,-0.30504 1.99533,-0.50627 2.38425,-0.63379 1.33409,-0.76161 2.497392,-2.50763 3.25948,-3.71219 1.918141,-3.05795 2.545951,-5.97587 1.780651,-8.29961 -0.27476,-0.83429 -0.77458,-1.72298 -1.388301,-2.35408 -0.84266,-0.8665 -1.89698,-1.31881 -3.38021,-1.47884 -0.5856,-0.0633 -2.07011,-0.0189 -3.35002,0.0905 -2.95973,0.25306 -4.40112,0.15551 -5.61356,-0.39235 -0.62775,-0.28366 -1.19677,-0.70452 -1.62974,-1.17703 -0.369712,-0.31466 -0.27162,-0.61162 -0.27162,-1.0865 0,-0.48915 0.0224,-0.97609 0.0604,-1.26758 0.43403,-3.33759 2.59832,-5.79309 6.82077,-7.75636 2.33723,-1.08672 4.46756,-1.82317 6.06626,-2.08245 2.64906,-0.72323 3.394722,0.48979 6.18829,0.18108 0.92081,-0.074 2.17418,-0.71627 3.13746,-1.23739 1.93274,-1.04559 2.5907,-1.41813 3.53111,-1.99191 3.16928,-1.93373 5.14126,-3.87505 6.21716,-6.06626 0.66378,-1.35186 0.98533,-2.76767 0.93559,-4.28562 -0.0279,-0.8518 -0.0865,-1.1051 -0.27162,-1.65992 -0.15993,-0.47938 -0.41693,-1.02814 -0.99595,-2.02209 -0.7151,-1.22757 -1.0195,-1.96989 -1.17704,-2.89732 l -0.0905,-0.48289 0.27162,-0.3018 c 1.8069,-1.98402 3.085333,-4.06603 3.802733,-6.27754 0.39542,-1.21895 0.54325,-2.15697 0.54325,-3.25948 0,-1.59075 -0.35608,-2.84664 -1.17703,-4.07436 -0.16182,-0.24197 -0.426533,-0.54564 -0.573433,-0.69415 -1.40865,-1.42397 -6.32114,-3.0964 -8.45052,-2.86713 -1.17317,0.1263 -2.12581,0.56813 -4.25543,1.93154 -1.59448,1.0208 -2.12976,1.33505 -3.048229,1.75047 -4.295031,1.94259 -7.802711,2.39411 -10.110431,1.32793 -1.37014,-0.633 -2.35585,-1.87679 -2.80678,-3.56129 -0.12842,-0.47971 -0.0993,-0.53766 0.21126,-1.44865 0.25551,-0.74961 0.4652,-1.26464 0.75451,-1.81083 0.92605,-1.74827 2.11075,-3.06216 3.92346,-4.3158 1.31991,-0.91283 2.56245,-1.55728 6.126621,-3.19912 6.765479,-3.11652 9.854489,-4.80334 12.434329,-6.76041 2.11295,-1.60289 3.44891,-3.30056 4.71676,-5.28373 0.65159,-1.70592 0.960693,-3.90493 1.198603,-5.36996 0.34842,-2.12914 0.41987,-2.6361 0.39234,-3.59147 -0.012,-0.41444 -0.0562,-0.91498 -0.0905,-1.11667 -0.30629,-1.79593 -1.026513,-3.14692 -2.354073,-4.43652 -0.18679,-0.18144 -0.72557,-0.67576 -1.20722,-1.0865 -0.95335,-0.813 -1.68675,-1.52694 -1.96172,-1.90136 -0.64688,-0.88085 -0.92791,-1.81336 -0.81487,-2.74642 0.0677,-0.55865 0.21043,-1.02097 0.57343,-1.99191 0.37542,-1.00419 0.40712,-1.15527 0.54324,-1.96172 0.58701,-3.47747 -0.25099,-6.57935 -2.35407,-8.75232 -0.81817,-0.84536 -1.5845,-1.41568 -2.65588,-1.96173 -1.79102,-0.91282 -3.64134,-1.13033 -5.52301,-0.63379 -1.74335,0.46006 -3.46405,1.40008 -5.52302,3.04822 -0.98055,0.78492 -1.90587,1.65089 -4.37615,3.98382 -1.7643,1.66619 -2.54956,2.34049 -3.47075,3.01804 -1.4925,1.09776 -2.77913,1.59432 -3.89327,1.47884 -1.99689,-0.20696 -3.77528,-1.72069 -4.46671,-3.80273 -0.49274,-1.48375 -0.43786,-3.08881 0.12073,-4.76851 0.4735,-1.42382 1.05517,-2.47481 2.9275,-5.28157 1.02908,-1.54266 1.32329,-2.02849 1.75046,-2.80678 1.27059,-2.31554 1.65321,-4.2051 1.26758,-6.33788 -0.48662,-2.69128 -2.20871,-5.64131 -4.76851,-8.14871 -2.13776,-2.09402 -4.43519,-3.48764 -6.1568,-3.74237 -2.48751,-0.36806 -4.15643,-0.009 -6.12662,1.29775 -0.31257,0.2072 -1.00276,0.69633 -1.53921,1.0865 -1.161309,0.80134 -2.503559,2.4795 -3.59147,1.93154 -1.138468,-0.56876 -2.165297,-1.4034 -3.531103,-2.83695 -1.436703,-1.50797 -2.385218,-2.20353 -3.621649,-2.6257 -0.820849,-0.28027 -1.642007,-0.36366 -2.806778,-0.33198 z"
       id="path2996"
       sodipodi:nodetypes="ccscsssccccsccsscccsccsssssscccscsccccscccsccscscscsscsscsccccsscsccccccsccscccssccscccsccsssccscccsscccsssscsssscccccsscscssccsssssscssscccsscc" /></g><g
     inkscape:groupmode="layer"
     id="layer2"
     inkscape:label="struts"
     style="display:inline" /><g
     inkscape:groupmode="layer"
     id="layer3"
     inkscape:label="fillings"
     style="display:inline" /></svg>