<?xml version="1.0" encoding="UTF-8" standalone="no"?>
<!-- Created with Inkscape (http://www.inkscape.org/) -->

<svg
   xmlns:dc="http://purl.org/dc/elements/1.1/"
   xmlns:cc="http://creativecommons.org/ns#"
   xmlns:rdf="http://www.w3.org/1999/02/22-rdf-syntax-ns#"
   xmlns:svg="http://www.w3.org/2000/svg"
   xmlns="http://www.w3.org/2000/svg"
   xmlns:sodipodi="http://sodipodi.sourceforge.net/DTD/sodipodi-0.dtd"
   xmlns:inkscape="http://www.inkscape.org/namespaces/inkscape"
   width="100mm"
   height="100mm"
   viewBox="0 0 100 100"
   id="svg2"
   version="1.1"
   inkscape:version="0.91 r13725"
   sodipodi:docname="herz.svg">
  <defs
     id="defs4" />
  <sodipodi:namedview
     id="base"
     pagecolor="#ffffff"
     bordercolor="#666666"
     borderopacity="1.0"
     inkscape:pageopacity="0.0"
     inkscape:pageshadow="2"
     inkscape:zoom="1.979899"
     inkscape:cx="28.749703"
     inkscape:cy="102.90801"
     inkscape:document-units="mm"
     inkscape:current-layer="layer3"
     showgrid="true"
     inkscape:window-width="1280"
     inkscape:window-height="752"
     inkscape:window-x="0"
     inkscape:window-y="22"
     inkscape:window-maximized="0"
     inkscape:snap-nodes="true"
     inkscape:snap-bbox="true"
     inkscape:bbox-nodes="true"
     inkscape:bbox-paths="false"
     inkscape:object-nodes="true"
     inkscape:snap-global="false">
    <inkscape:grid
       type="xygrid"
       id="grid3339"
       spacingx="1mm"
       spacingy="1mm"
       units="mm" />
  </sodipodi:namedview>
  <metadata
     id="metadata7">
    <rdf:RDF>
      <cc:Work
         rdf:about="">
        <dc:format>image/svg+xml</dc:format>
        <dc:type
           rdf:resource="http://purl.org/dc/dcmitype/StillImage" />
        <dc:title></dc:title>
      </cc:Work>
    </rdf:RDF>
  </metadata>
  <g
     inkscape:groupmode="layer"
     id="layer1"
     inkscape:label="foo"
     style="display:none"
     sodipodi:insensitive="true">
    <path
       sodipodi:nodetypes="czczccc"
       inkscape:connector-curvature="0"
       id="path4154"
       d="m 1,70 c 0,-6 4,-10 9,-10 5,0 10,5 10,12 0,-7 5,-12 10,-12 5,0 9,4 9,10 C 39,80 20,89 20,100 20,89 1,80 1,70 Z"
       style="display:inline;fill:#000000;fill-opacity:0.19607843;fill-rule:evenodd;stroke:none;stroke-width:0.26458332px;stroke-linecap:butt;stroke-linejoin:miter;stroke-opacity:1" />
    <rect
       style="color:#000000;display:inline;overflow:visible;visibility:visible;opacity:1;fill:#000000;fill-opacity:0.19607843;fill-rule:nonzero;stroke:none;stroke-width:0.26499999;stroke-linecap:butt;stroke-linejoin:miter;stroke-miterlimit:4;stroke-dasharray:none;stroke-dashoffset:0;stroke-opacity:0.39215686;marker:none;enable-background:accumulate"
       id="rect4148"
       width="7.9999981"
       height="33"
       x="26"
       y="66"
       rx="4"
       ry="4" />
  </g>
  <g
     inkscape:groupmode="layer"
     id="layer3"
     inkscape:label="shape"
     style="display:inline">
    <path
       style="fill:#000000;fill-opacity:0.19607843;fill-rule:evenodd;stroke:none;stroke-width:0.26458332px;stroke-linecap:butt;stroke-linejoin:miter;stroke-opacity:1"
       d="m 11.936339,53.407344 c -3.2068475,0 -6.3924295,1.284536 -8.5455687,3.61354 C 1.219293,59.36972 0,62.774759 0,66.669943 c 0,3.436026 1.5399429,6.498241 3.937334,9.757853 2.3791882,3.234859 5.497204,6.390548 8.659545,9.636107 3.948009,4.051907 7.792969,8.183364 10.193032,12.560613 0.454061,0.827962 1.376662,1.374162 2.320955,1.375476 0.944293,0.0013 1.872359,-0.543602 2.328725,-1.370295 1.263165,-2.287747 2.869855,-4.355362 4.324209,-7.012402 3.101045,-5.665468 1.488811,-14.337273 2.188453,-24.947352 0.192046,-2.912383 1.988457,-5.30504 4.907161,-5.30504 2.918703,0 4.333085,2.753053 4.64191,5.529314 l 0.508597,4.572168 c 0.130984,1.17752 0.16511,1.887925 1.318932,2.157368 1.154631,0.269632 2.677636,-0.983663 3.202933,-2.046649 0.933344,-1.888708 1.468211,-2.762819 1.468211,-4.907161 0,-3.895184 -0.821415,-7.300223 -2.992892,-9.649059 -2.15314,-2.329004 -5.338722,-3.61354 -8.545569,-3.61354 -4.50738,0 -8.449209,2.846777 -10.928692,7.44726 -1.002635,1.8557 -3.665178,1.8557 -4.667814,0 -2.479482,-4.600483 -6.421311,-7.44726 -10.928691,-7.44726 z"
       id="path4181"
       inkscape:connector-curvature="0"
       sodipodi:nodetypes="ssssscscssssssssssccs" />
  </g>
  <g
     inkscape:groupmode="layer"
     id="layer2"
     inkscape:label="struts"
     style="display:inline" />
  <g
     inkscape:groupmode="layer"
     id="layer4"
     inkscape:label="fillings"
     style="display:inline" />
</svg>
