<?xml version="1.0" encoding="UTF-8" standalone="no"?>
<!-- Created with Inkscape (http://www.inkscape.org/) -->

<svg
   xmlns:dc="http://purl.org/dc/elements/1.1/"
   xmlns:cc="http://creativecommons.org/ns#"
   xmlns:rdf="http://www.w3.org/1999/02/22-rdf-syntax-ns#"
   xmlns:svg="http://www.w3.org/2000/svg"
   xmlns="http://www.w3.org/2000/svg"
   xmlns:sodipodi="http://sodipodi.sourceforge.net/DTD/sodipodi-0.dtd"
   xmlns:inkscape="http://www.inkscape.org/namespaces/inkscape"
   width="100mm"
   height="100mm"
   viewBox="0 0 100 100"
   id="svg2"
   version="1.1"
   inkscape:version="0.91+devel r13901 custom"
   sodipodi:docname="herz.svg">
  <defs
     id="defs4" />
  <sodipodi:namedview
     id="base"
     pagecolor="#ffffff"
     bordercolor="#666666"
     borderopacity="1.0"
     inkscape:pageopacity="0.0"
     inkscape:pageshadow="2"
     inkscape:zoom="2.8"
     inkscape:cx="115.52621"
     inkscape:cy="133.70211"
     inkscape:document-units="mm"
     inkscape:current-layer="layer3"
     showgrid="true"
     inkscape:window-width="1680"
     inkscape:window-height="1002"
     inkscape:window-x="0"
     inkscape:window-y="22"
     inkscape:window-maximized="0"
     inkscape:snap-nodes="true"
     inkscape:snap-bbox="true"
     inkscape:bbox-nodes="true"
     inkscape:bbox-paths="false"
     inkscape:object-nodes="true"
     inkscape:snap-global="false">
    <inkscape:grid
       type="xygrid"
       id="grid3339"
       spacingx="1mm"
       spacingy="1mm"
       units="mm" />
  </sodipodi:namedview>
  <metadata
     id="metadata7">
    <rdf:RDF>
      <cc:Work
         rdf:about="">
        <dc:format>image/svg+xml</dc:format>
        <dc:type
           rdf:resource="http://purl.org/dc/dcmitype/StillImage" />
        <dc:title></dc:title>
      </cc:Work>
    </rdf:RDF>
  </metadata>
  <g
     inkscape:groupmode="layer"
     id="layer1"
     inkscape:label="foo"
     style="display:none"
     sodipodi:insensitive="true">
    <path
       sodipodi:nodetypes="czczccc"
       inkscape:connector-curvature="0"
       id="path4154"
       d="m 1,70 c 0,-6 4,-10 9,-10 5,0 10,5 10,12 0,-7 5,-12 10,-12 5,0 9,4 9,10 C 39,80 20,89 20,100 20,89 1,80 1,70 Z"
       style="display:inline;fill:#000000;fill-opacity:0.19607843;fill-rule:evenodd;stroke:none;stroke-width:0.26458332px;stroke-linecap:butt;stroke-linejoin:miter;stroke-opacity:1" />
    <rect
       style="color:#000000;display:inline;overflow:visible;visibility:visible;opacity:1;fill:#000000;fill-opacity:0.19607843;fill-rule:nonzero;stroke:none;stroke-width:0.26499999;stroke-linecap:butt;stroke-linejoin:miter;stroke-miterlimit:4;stroke-dasharray:none;stroke-dashoffset:0;stroke-opacity:0.39215686;marker:none;enable-background:accumulate"
       id="rect4148"
       width="7.9999981"
       height="33"
       x="26"
       y="66"
       rx="4"
       ry="4" />
  </g>
  <g
     inkscape:groupmode="layer"
     id="layer3"
     inkscape:label="shape"
     style="display:inline">
    <path
       transform="translate(38,-2)"
       style="fill:#000000;fill-opacity:0.19607843;fill-rule:evenodd;stroke:none;stroke-width:0.26458332px;stroke-linecap:butt;stroke-linejoin:miter;stroke-opacity:1"
       d="m -28,62 c -2.417963,0 -4.819892,0.96854 -6.443359,2.724609 C -36.080653,66.495632 -37,69.063031 -37,72 c 0,2.590764 1.161117,4.899674 2.96875,7.357422 1.793908,2.439084 4.144892,4.818473 6.529297,7.265625 2.976799,3.055138 5.875899,6.170257 7.685547,9.470703 0.342362,0.624283 1.038003,1.036118 1.75,1.037109 0.711997,9.92e-4 1.411759,-0.409876 1.755859,-1.033203 0.952426,-1.724961 2.163871,-3.283943 3.260454,-5.287351 C -10.711905,86.538542 -11.92753,80 -11.4,72 c 0.144803,-2.195937 1.499297,-4 3.7,-4 2.2007025,0 3.2671462,2.075802 3.5,4.169103 l 0.3834821,3.447415 c 0.098762,0.88785 0.1244932,1.423495 0.9944755,1.626655 C -1.9514506,77.446476 -0.80310474,76.501491 -0.40703125,75.7 0.29671027,74.275914 0.7,73.616834 0.7,72 0.7,69.063031 0.08065342,66.495632 -1.5566406,64.724609 -3.180108,62.96854 -5.582037,62 -8,62 c -3.398565,0 -6.370704,2.14647 -8.240234,5.615234 -0.755987,1.399198 -2.763545,1.399198 -3.519532,0 C -21.629296,64.14647 -24.601435,62 -28,62 Z"
       id="path4181"
       inkscape:connector-curvature="0"
       sodipodi:nodetypes="ssssscscssssssssssccs" />
  </g>
  <g
     inkscape:groupmode="layer"
     id="layer2"
     inkscape:label="struts"
     style="display:inline" />
  <g
     inkscape:groupmode="layer"
     id="layer4"
     inkscape:label="fillings"
     style="display:inline" />
</svg>
