<?xml version="1.0" encoding="UTF-8" standalone="no"?>
<!-- Created with Inkscape (http://www.inkscape.org/) -->

<svg
   xmlns:dc="http://purl.org/dc/elements/1.1/"
   xmlns:cc="http://creativecommons.org/ns#"
   xmlns:rdf="http://www.w3.org/1999/02/22-rdf-syntax-ns#"
   xmlns:svg="http://www.w3.org/2000/svg"
   xmlns="http://www.w3.org/2000/svg"
   xmlns:sodipodi="http://sodipodi.sourceforge.net/DTD/sodipodi-0.dtd"
   xmlns:inkscape="http://www.inkscape.org/namespaces/inkscape"
   width="100mm"
   height="100mm"
   viewBox="0 0 100 100"
   id="svg2"
   version="1.1"
   inkscape:version="0.91+devel r13724 custom"
   sodipodi:docname="koubachi.svg">
  <defs
     id="defs4" />
  <sodipodi:namedview
     id="base"
     pagecolor="#ffffff"
     bordercolor="#666666"
     borderopacity="1.0"
     inkscape:pageopacity="0.0"
     inkscape:pageshadow="2"
     inkscape:zoom="1.979899"
     inkscape:cx="106.12904"
     inkscape:cy="17.729441"
     inkscape:document-units="mm"
     inkscape:current-layer="svg2"
     showgrid="true"
     inkscape:window-width="1680"
     inkscape:window-height="1002"
     inkscape:window-x="0"
     inkscape:window-y="22"
     inkscape:window-maximized="0"
     inkscape:snap-nodes="false"
     inkscape:snap-bbox="true"
     inkscape:bbox-nodes="true">
    <inkscape:grid
       type="xygrid"
       id="grid3339"
       spacingx="1mm"
       spacingy="1mm"
       units="mm" />
  </sodipodi:namedview>
  <metadata
     id="metadata7">
    <rdf:RDF>
      <cc:Work
         rdf:about="">
        <dc:format>image/svg+xml</dc:format>
        <dc:type
           rdf:resource="http://purl.org/dc/dcmitype/StillImage" />
        <dc:title />
      </cc:Work>
    </rdf:RDF>
  </metadata>
  <g
     inkscape:groupmode="layer"
     id="layer3"
     inkscape:label="shape">
    <path
       d="M 73.977069,90.310761 38.34824,58.293321 70.10087,26.60852 c 0.785006,-0.78286 0.550929,-1.66262 -0.520789,-1.95399 L 54.424304,20.52867 c -1.071717,-0.29125 -2.582479,0.11988 -3.357562,0.91325 l -28.865127,29.797211 0,-27.208401 0,-8.4e-4 C 22.201615,21.8048 20.394221,20 18.164958,20 L 4.0366576,20 C 1.8065016,20 0,21.8029 0,24.03088 l 0,70.540731 c 0,2.22695 1.8065016,4.03088 4.0366576,4.03088 l 14.1283004,0 c 2.228248,0 4.035637,-1.80393 4.036657,-4.03088 l 0,-26.20093 32.848635,30.85965 c 0.804205,0.76166 2.283429,0.999819 3.287636,0.525 l 15.315341,-7.2346 c 1.002809,-0.47332 1.149153,-1.46837 0.323842,-2.20983"
       id="path22"
       inkscape:connector-curvature="0"
       style="display:inline;fill:#000000;fill-opacity:0.39215686;stroke:none"
       sodipodi:nodetypes="ccccccccssssssscccccc" />
  </g>
  <g
     inkscape:groupmode="layer"
     id="layer2"
     inkscape:label="struts">
    <path
       style="display:inline;fill:#ff0000;fill-opacity:0.39215686;stroke:none"
       d="m 31.633963,41.405581 11.735029,11.95584 -2.860752,2.7999 -11.735032,-11.95584 z"
       id="rect3002"
       inkscape:connector-curvature="0" />
    <path
       style="display:inline;fill:#ff0000;fill-opacity:0.39215686;stroke:none"
       d="m 27.250498,73.796471 13.104282,-13.7616 2.902877,2.75633 -13.104282,13.7616 z"
       id="rect3794"
       inkscape:connector-curvature="0" />
    <path
       style="color:#000000;display:inline;overflow:visible;visibility:visible;fill:#ff0000;fill-opacity:0.39215686;fill-rule:nonzero;stroke:none;stroke-width:1;marker:none;enable-background:accumulate"
       d="m 1.3e-6,45.163531 22.3012517,0 0,4 -22.3012517,0 z"
       id="rect3806"
       inkscape:connector-curvature="0" />
    <path
       style="color:#000000;display:inline;overflow:visible;visibility:visible;fill:#ff0000;fill-opacity:0.39215686;fill-rule:nonzero;stroke:none;stroke-width:1;marker:none;enable-background:accumulate"
       d="m 1.3e-6,70.260791 22.3012517,0 0,4 -22.3012517,0 z"
       id="rect3844"
       inkscape:connector-curvature="0" />
  </g>
  <g
     inkscape:groupmode="layer"
     id="layer4"
     inkscape:label="fillings" />
</svg>
