<?xml version="1.0" encoding="UTF-8" standalone="no"?>
<!-- Generator: Adobe Illustrator 15.1.0, SVG Export Plug-In . SVG Version: 6.00 Build 0)  -->

<svg
   xmlns:dc="http://purl.org/dc/elements/1.1/"
   xmlns:cc="http://creativecommons.org/ns#"
   xmlns:rdf="http://www.w3.org/1999/02/22-rdf-syntax-ns#"
   xmlns:svg="http://www.w3.org/2000/svg"
   xmlns="http://www.w3.org/2000/svg"
   xmlns:sodipodi="http://sodipodi.sourceforge.net/DTD/sodipodi-0.dtd"
   xmlns:inkscape="http://www.inkscape.org/namespaces/inkscape"
   version="1.1"
   id="Ebene_2"
   x="0px"
   y="0px"
   width="626.03119"
   height="670.09412"
   viewBox="0 0 626.03119 670.09412"
   enable-background="new 0 0 4856 968"
   xml:space="preserve"
   inkscape:version="0.48.5 r10040"
   sodipodi:docname="koubachi_k.svg"><metadata
     id="metadata41"><rdf:RDF><cc:Work
         rdf:about=""><dc:format>image/svg+xml</dc:format><dc:type
           rdf:resource="http://purl.org/dc/dcmitype/StillImage" /><dc:title /></cc:Work></rdf:RDF></metadata><defs
     id="defs39" /><sodipodi:namedview
     pagecolor="#ffffff"
     bordercolor="#666666"
     borderopacity="1"
     objecttolerance="10"
     gridtolerance="10"
     guidetolerance="10"
     inkscape:pageopacity="0"
     inkscape:pageshadow="2"
     inkscape:window-width="1680"
     inkscape:window-height="1002"
     id="namedview37"
     showgrid="false"
     fit-margin-top="20"
     fit-margin-left="20"
     fit-margin-right="20"
     fit-margin-bottom="20"
     inkscape:zoom="1.2774486"
     inkscape:cx="197.0982"
     inkscape:cy="188.61312"
     inkscape:window-x="0"
     inkscape:window-y="22"
     inkscape:window-maximized="0"
     inkscape:current-layer="layer2"
     inkscape:document-units="mm" /><g
     inkscape:groupmode="layer"
     id="layer1"
     inkscape:label="shape"
     style="display:inline"><path
       d="M 261.74898,635.76238 135.68546,522.31477 248.03404,410.0458 c 2.77754,-2.77392 1.94932,-5.8912 -1.84268,-6.9236 L 192.56651,388.503 c -3.792,-1.032 -9.13744,0.4248 -11.87988,3.23592 l -102.131886,105.58065 0,-96.40769 0,-0.003 c 0,-7.88416 -6.395,-14.27912 -14.28268,-14.27912 l -49.989385,0 c -7.8908402,0 -14.2826802523757,6.38824 -14.2826802523757,14.28264 l 0,249.94746 c 0,7.8908 6.3918400523757,14.28264 14.2826802523757,14.28264 l 49.989385,0 c 7.884088,0 14.279072,-6.39184 14.28268,-14.28264 l 0,-92.83793 116.226516,109.34521 c 2.84547,2.6988 8.07933,3.54272 11.63246,1.86024 l 54.18943,-25.6344 c 3.54818,-1.67712 4.06598,-5.20288 1.14583,-7.83008"
       id="path22"
       inkscape:connector-curvature="0"
       style="fill:#212721"
       sodipodi:nodetypes="ccccccccssssssscccccc" /></g><g
     inkscape:groupmode="layer"
     id="layer2"
     inkscape:label="struts"
     style="display:inline"><path
       style="fill:#ff0000;fill-opacity:1;stroke:none"
       d="m 111.9287,462.4763 41.52141,42.36322 -10.12204,9.92091 -41.52142,-42.36321 z"
       id="rect3002"
       inkscape:connector-curvature="0" /><path
       style="fill:#ff0000;fill-opacity:1;stroke:none"
       d="m 96.418932,577.24716 46.366158,-48.76156 10.27109,9.76653 -46.36616,48.76156 z"
       id="rect3794"
       inkscape:connector-curvature="0" /><path
       style="color:#000000;fill:#ff0000;fill-opacity:1;fill-rule:nonzero;stroke:none;stroke-width:1;marker:none;visibility:visible;display:inline;overflow:visible;enable-background:accumulate"
       d="m 2.86255e-6,475.79189 78.90728813745,0 0,14.17323 -78.90728813745,0 z"
       id="rect3806"
       inkscape:connector-curvature="0" /><path
       style="color:#000000;fill:#ff0000;fill-opacity:1;fill-rule:nonzero;stroke:none;stroke-width:1;marker:none;visibility:visible;display:inline;overflow:visible;enable-background:accumulate"
       d="m 2.8856806e-6,564.71917 78.9072881143194,0 0,14.17322 -78.9072881143194,0 z"
       id="rect3844"
       inkscape:connector-curvature="0" /></g></svg>