<?xml version="1.0" encoding="UTF-8" standalone="no"?>
<!-- Created with Inkscape (http://www.inkscape.org/) -->

<svg
   xmlns:dc="http://purl.org/dc/elements/1.1/"
   xmlns:cc="http://creativecommons.org/ns#"
   xmlns:rdf="http://www.w3.org/1999/02/22-rdf-syntax-ns#"
   xmlns:svg="http://www.w3.org/2000/svg"
   xmlns="http://www.w3.org/2000/svg"
   xmlns:xlink="http://www.w3.org/1999/xlink"
   xmlns:sodipodi="http://sodipodi.sourceforge.net/DTD/sodipodi-0.dtd"
   xmlns:inkscape="http://www.inkscape.org/namespaces/inkscape"
   width="100mm"
   height="100mm"
   viewBox="0 0 100 100"
   id="svg2"
   version="1.1"
   inkscape:version="0.91+devel r13724 custom"
   sodipodi:docname="pi.svg">
  <defs
     id="defs4" />
  <sodipodi:namedview
     id="base"
     pagecolor="#ffffff"
     bordercolor="#666666"
     borderopacity="1.0"
     inkscape:pageopacity="0.0"
     inkscape:pageshadow="2"
     inkscape:zoom="2.8"
     inkscape:cx="84.78714"
     inkscape:cy="76.165356"
     inkscape:document-units="mm"
     inkscape:current-layer="layer3"
     showgrid="true"
     inkscape:window-width="1680"
     inkscape:window-height="1002"
     inkscape:window-x="0"
     inkscape:window-y="22"
     inkscape:window-maximized="0"
     inkscape:snap-nodes="false"
     inkscape:snap-bbox="true"
     inkscape:bbox-nodes="true">
    <inkscape:grid
       type="xygrid"
       id="grid3339"
       spacingx="1mm"
       spacingy="1mm"
       units="mm" />
  </sodipodi:namedview>
  <metadata
     id="metadata7">
    <rdf:RDF>
      <cc:Work
         rdf:about="">
        <dc:format>image/svg+xml</dc:format>
        <dc:type
           rdf:resource="http://purl.org/dc/dcmitype/StillImage" />
        <dc:title />
      </cc:Work>
    </rdf:RDF>
  </metadata>
  <g
     inkscape:groupmode="layer"
     id="layer3"
     inkscape:label="shape">
    <path
       sodipodi:type="inkscape:offset"
       inkscape:radius="9.1923876"
       inkscape:original="M 142.71875 413.71875 C 132.68159 413.71894 123.93806 417.24761 116.46875 424.25 C 109.23265 431.01934 101.734 444.89866 94.03125 465.90625 L 100 465.90625 L 107.34375 455.0625 C 112.47888 447.59324 120.19819 443.84391 130.46875 443.84375 L 146.90625 443.84375 L 136.75 524.03125 C 136.04962 530.80049 130.22059 540.82016 119.25 554.125 C 113.41441 561.12763 110.4999 566.9879 110.5 571.65625 C 110.4999 577.72519 112.50052 582.49873 116.46875 586 C 120.43677 589.26789 124.62742 590.90627 129.0625 590.90625 C 135.59812 590.90627 140.95457 588.43308 145.15625 583.53125 C 149.35766 578.62947 153.32765 564.16725 157.0625 540.125 C 161.03048 516.08289 164.7798 483.99202 168.28125 443.84375 L 207.84375 443.84375 L 201.875 500.21875 C 201.17455 507.68827 200.84356 516.21115 200.84375 525.78125 C 200.84356 547.72274 204.23064 563.93367 211 574.4375 C 217.76896 584.70798 225.56735 589.84377 234.4375 589.84375 C 246.57507 589.84377 256.51566 584.01475 264.21875 572.34375 C 272.15475 560.67283 276.12473 547.01416 276.125 531.375 L 268.75 531.375 C 266.18213 548.88152 259.1873 557.62505 247.75 557.625 C 232.57751 557.62505 224.99979 547.13281 225 526.125 C 224.99979 498.81504 226.38625 471.38738 229.1875 443.84375 L 273.3125 443.84375 L 273.3125 413.71875 L 142.71875 413.71875 z "
       xlink:href="#text3128"
       style="font-style:normal;font-weight:normal;font-size:97.25810242px;line-height:125%;font-family:Sans;letter-spacing:0px;word-spacing:0px;display:inline;fill:#000000;fill-opacity:0.39215686;stroke:none"
       id="path3135"
       inkscape:href="#text3128"
       d="m 142.71875,404.52539 c -12.18823,2.3e-4 -23.57391,4.61941 -32.5293,13.01172 -9.50011,8.88731 -16.873005,23.61575 -24.789059,45.20508 a 9.1933068,9.1933068 0 0 0 8.630859,12.35742 l 5.96875,0 a 9.1933068,9.1933068 0 0 0 7.61133,-4.03906 l 7.30664,-10.79102 c 0.002,-0.003 0.006,-0.005 0.008,-0.008 3.51065,-5.10166 7.51463,-7.22449 15.54297,-7.22461 l 6.00781,0 -8.8457,69.83984 a 9.1933068,9.1933068 0 0 0 -0.0254,0.20899 c -0.25861,2.49943 -4.90103,12.4012 -15.44727,25.1914 -6.46928,7.76913 -10.85174,14.89827 -10.85156,23.37891 -1.3e-4,8.08919 3.15306,16.00677 9.08008,21.23633 a 9.1933068,9.1933068 0 0 0 0.23828,0.20312 c 5.25581,4.32846 11.73853,7.00394 18.4375,7.00391 8.85467,3e-5 17.35258,-3.91315 23.07227,-10.58594 4.07671,-4.7563 5.88015,-10.29955 8.01367,-18.07617 2.13151,-7.76929 4.09351,-17.65398 5.99218,-29.87109 3.71664,-22.53124 7.181,-52.51189 10.45704,-88.5293 l 21.02929,0 -4.89257,46.21289 a 9.1933068,9.1933068 0 0 0 -0.0117,0.11133 c -0.73601,7.84867 -1.07246,16.63776 -1.07227,26.41992 -2e-4,22.88754 3.27708,40.68651 11.62305,53.63672 a 9.1933068,9.1933068 0 0 0 0.0508,0.0781 c 7.77931,11.80348 18.69487,19.54105 31.11328,19.54102 15.05468,2e-5 28.47342,-8.07346 37.4043,-21.5625 8.99345,-13.24234 13.47626,-28.92032 13.47656,-46.09961 a 9.1933068,9.1933068 0 0 0 -9.19336,-9.19336 l -7.375,0 a 9.1933068,9.1933068 0 0 0 -9.0957,7.85938 c -1.14189,7.78486 -3.28242,12.81444 -5.25586,15.28125 -1.97345,2.4668 -3.27225,3.10939 -6.64844,3.10937 -5.4673,2e-5 -7.52633,-1.17092 -9.61328,-4.06055 -2.08695,-2.88962 -3.94345,-8.84746 -3.94336,-18.24609 -1.9e-4,-24.2652 1.16919,-48.63112 3.4043,-73.08789 l 35.71484,0 a 9.1933068,9.1933068 0 0 0 9.19336,-9.19336 l 0,-30.125 a 9.1933068,9.1933068 0 0 0 -9.19336,-9.19336 l -130.59375,0 z"
       transform="matrix(0.2822231,0,0,0.2822231,-23.943449,-69.361975)" />
  </g>
  <g
     inkscape:groupmode="layer"
     id="layer2"
     inkscape:label="struts" />
  <g
     inkscape:groupmode="layer"
     id="layer4"
     inkscape:label="fillings" />
</svg>
