<?xml version="1.0" encoding="UTF-8" standalone="no"?>
<!-- Generator: Adobe Illustrator 15.1.0, SVG Export Plug-In . SVG Version: 6.00 Build 0)  -->

<svg
   xmlns:dc="http://purl.org/dc/elements/1.1/"
   xmlns:cc="http://creativecommons.org/ns#"
   xmlns:rdf="http://www.w3.org/1999/02/22-rdf-syntax-ns#"
   xmlns:svg="http://www.w3.org/2000/svg"
   xmlns="http://www.w3.org/2000/svg"
   xmlns:sodipodi="http://sodipodi.sourceforge.net/DTD/sodipodi-0.dtd"
   xmlns:inkscape="http://www.inkscape.org/namespaces/inkscape"
   version="1.1"
   id="Ebene_2"
   x="0px"
   y="0px"
   width="626.03149"
   height="670.09412"
   viewBox="0 0 626.0315 670.09412"
   enable-background="new 0 0 4856 968"
   xml:space="preserve"
   inkscape:version="0.48.5 r10040"
   sodipodi:docname="tetris.svg"><metadata
     id="metadata41"><rdf:RDF><cc:Work
         rdf:about=""><dc:format>image/svg+xml</dc:format><dc:type
           rdf:resource="http://purl.org/dc/dcmitype/StillImage" /><dc:title /></cc:Work></rdf:RDF></metadata><defs
     id="defs39"><inkscape:path-effect
       effect="spiro"
       id="path-effect3090"
       is_visible="true" /><inkscape:path-effect
       effect="spiro"
       id="path-effect3086"
       is_visible="true" /><inkscape:path-effect
       is_visible="true"
       id="path-effect3082"
       effect="spiro" /><inkscape:path-effect
       effect="spiro"
       id="path-effect3078"
       is_visible="true" /><inkscape:path-effect
       is_visible="true"
       id="path-effect3074"
       effect="spiro" /><inkscape:path-effect
       is_visible="true"
       id="path-effect3038"
       effect="spiro" /><inkscape:path-effect
       effect="spiro"
       id="path-effect3774"
       is_visible="true" /><inkscape:path-effect
       effect="spiro"
       id="path-effect3768"
       is_visible="true" /><inkscape:path-effect
       effect="spiro"
       id="path-effect3764"
       is_visible="true" /><inkscape:path-effect
       effect="spiro"
       id="path-effect3760"
       is_visible="true" /></defs><sodipodi:namedview
     pagecolor="#ffffff"
     bordercolor="#666666"
     borderopacity="1"
     objecttolerance="10"
     gridtolerance="10"
     guidetolerance="10"
     inkscape:pageopacity="0"
     inkscape:pageshadow="2"
     inkscape:window-width="1037"
     inkscape:window-height="1002"
     id="namedview37"
     showgrid="true"
     fit-margin-top="20"
     fit-margin-left="20"
     fit-margin-right="20"
     fit-margin-bottom="20"
     inkscape:zoom="1.47"
     inkscape:cx="131.09107"
     inkscape:cy="203.40309"
     inkscape:window-x="0"
     inkscape:window-y="22"
     inkscape:window-maximized="0"
     inkscape:current-layer="layer2"
     inkscape:document-units="mm"
     units="mm"
     inkscape:snap-nodes="false"
     inkscape:snap-bbox="true"
     showguides="true"
     inkscape:guide-bbox="true"><inkscape:grid
       type="xygrid"
       id="grid2988"
       empspacing="5"
       visible="true"
       enabled="true"
       snapvisiblegridlinesonly="true"
       units="mm"
       spacingx="1mm"
       spacingy="1mm" /></sodipodi:namedview><g
     inkscape:groupmode="layer"
     id="layer1"
     inkscape:label="shape"
     style="display:inline"><g
       id="g3104"
       transform="translate(88.582678,-177.16536)"><path
         transform="translate(0,-1.2413595e-6)"
         inkscape:connector-curvature="0"
         id="path2990"
         d="m 7.0866142,670.09412 38.9763778,0 7.086614,-7.08662 0,-38.97638 -7.086614,-7.08661 -38.9763778,0 L 0,624.03112 0,663.0075 z"
         style="fill:#000000;fill-opacity:0.19607843;stroke:none" /><path
         inkscape:connector-curvature="0"
         id="path2990-2"
         d="m 7.0866158,616.94452 38.9763772,0 7.086614,-7.08662 0,-38.97638 -7.086614,-7.08661 -38.9763772,0 -7.08661500333082,7.08661 0,38.97638 z"
         style="fill:#000000;fill-opacity:0.19607843;stroke:none;display:inline" /><path
         inkscape:connector-curvature="0"
         id="path2990-4"
         d="m 60.236221,670.09412 38.976378,0 7.086611,-7.08662 0,-38.97638 -7.086611,-7.08661 -38.976378,0 -7.086614,7.08661 0,38.97638 z"
         style="fill:#000000;fill-opacity:0.19607843;stroke:none;display:inline" /><path
         inkscape:connector-curvature="0"
         id="path2990-2-5"
         d="m 60.236223,616.94452 38.976377,0 7.08661,-7.08662 0,-38.97638 -7.08661,-7.08661 -38.976377,0 -7.086615,7.08661 0,38.97638 z"
         style="fill:#000000;fill-opacity:0.19607843;stroke:none;display:inline" /><path
         transform="translate(0,-1.2413595e-6)"
         inkscape:connector-curvature="0"
         id="path2993"
         d="m 46.062992,616.94451 7.086614,-7.08661 7.086614,7.08661 -7.086614,7.08661 z"
         style="color:#000000;fill:#000000;fill-opacity:0.19607843;fill-rule:nonzero;stroke:none;stroke-width:1px;marker:none;visibility:visible;display:inline;overflow:visible;enable-background:accumulate" /></g><g
       id="g3098"
       transform="matrix(0,1,-1,0,670.09412,298.04687)"><path
         inkscape:connector-curvature="0"
         id="path2990-2-5-3"
         d="m 7.0866158,528.36184 38.9763812,0 7.08661,-7.08662 0,-38.97638 -7.08661,-7.08661 -38.9763812,0 -7.08661500333083,7.08661 0,38.97638 z"
         style="fill:#000000;fill-opacity:0.19607843;stroke:none;display:inline" /><path
         style="fill:#000000;fill-opacity:0.19607843;stroke:none;display:inline"
         d="m 7.0866142,475.21223 38.9763808,0 7.08661,-7.08662 0,-38.97638 -7.08661,-7.08661 -38.9763808,0 -7.08661496377494,7.08661 0,38.97638 z"
         id="path3030"
         inkscape:connector-curvature="0" /><path
         inkscape:connector-curvature="0"
         id="path3032"
         d="m 7.0866142,422.06262 38.9763808,0 7.08661,-7.08662 0,-38.97638 -7.08661,-7.08661 -38.9763808,0 -7.08661492421905,7.08661 0,38.97638 z"
         style="fill:#000000;fill-opacity:0.19607843;stroke:none;display:inline" /><path
         style="fill:#000000;fill-opacity:0.19607843;stroke:none;display:inline"
         d="m 7.0866118,368.91302 38.9763812,0 7.08661,-7.08662 0,-38.97638 -7.08661,-7.08661 -38.9763812,0 -7.0866149671058,7.08661 0,38.97638 z"
         id="path3034"
         inkscape:connector-curvature="0" /></g><g
       id="g3092"
       transform="matrix(0,1,-1,0,528.36184,191.74766)"><path
         style="fill:#000000;fill-opacity:0.19607843;stroke:none;display:inline"
         d="m 113.38583,528.36184 38.97638,0 7.08661,-7.08662 0,-38.97638 -7.08661,-7.08661 -38.97638,0 -7.08662,7.08661 0,38.97638 z"
         id="path3040"
         inkscape:connector-curvature="0" /><path
         inkscape:connector-curvature="0"
         id="path3042"
         d="m 166.53544,528.36184 38.97638,0 7.08661,-7.08662 0,-38.97638 -7.08661,-7.08661 -38.97638,0 -7.08662,7.08661 0,38.97638 z"
         style="fill:#000000;fill-opacity:0.19607843;stroke:none;display:inline" /><path
         style="fill:#000000;fill-opacity:0.19607843;stroke:none;display:inline"
         d="m 113.38583,475.21224 38.97638,0 7.08661,-7.08662 0,-38.97638 -7.08661,-7.08661 -38.97638,0 -7.08662,7.08661 0,38.97638 z"
         id="path3044"
         inkscape:connector-curvature="0" /><path
         inkscape:connector-curvature="0"
         id="path3046"
         d="m 219.68504,528.36184 38.97638,0 7.08661,-7.08662 0,-38.97638 -7.08661,-7.08661 -38.97638,0 -7.08662,7.08661 0,38.97638 z"
         style="fill:#000000;fill-opacity:0.19607843;stroke:none;display:inline" /></g><g
       id="g3111"
       transform="matrix(-1,0,0,-1,389.76379,1198.456)"><path
         style="fill:#000000;fill-opacity:0.19607843;stroke:none;display:inline"
         d="m 148.8189,670.09412 38.97638,0 7.08661,-7.08662 0,-38.97638 -7.08661,-7.08661 -38.97638,0 -7.08662,7.08661 0,38.97638 z"
         id="path3048"
         inkscape:connector-curvature="0" /><path
         inkscape:connector-curvature="0"
         id="path3050"
         d="m 201.96851,670.09413 38.97638,0 7.08661,-7.08662 0,-38.97638 -7.08661,-7.08661 -38.97638,0 -7.08662,7.08661 0,38.97638 z"
         style="fill:#000000;fill-opacity:0.19607843;stroke:none;display:inline" /><path
         style="fill:#000000;fill-opacity:0.19607843;stroke:none;display:inline"
         d="m 255.11812,670.09413 38.97638,0 7.08661,-7.08662 0,-38.97638 -7.08661,-7.08661 -38.97638,0 -7.08662,7.08661 0,38.97638 z"
         id="path3052"
         inkscape:connector-curvature="0" /><path
         inkscape:connector-curvature="0"
         id="path3054"
         d="m 201.96851,616.94452 38.97638,0 7.08661,-7.08662 0,-38.97638 -7.08661,-7.08661 -38.97638,0 -7.08662,7.08661 0,38.97638 z"
         style="fill:#000000;fill-opacity:0.19607843;stroke:none;display:inline" /></g><g
       id="g3123"
       transform="translate(-92.125987,-8.7586405e-6)"><path
         style="fill:#000000;fill-opacity:0.19607843;stroke:none;display:inline"
         d="m 329.52757,670.09413 38.97638,0 7.08661,-7.08662 0,-38.97638 -7.08661,-7.08661 -38.97638,0 -7.08662,7.08661 0,38.97638 z"
         id="path3056"
         inkscape:connector-curvature="0" /><path
         inkscape:connector-curvature="0"
         id="path3058"
         d="m 382.67717,670.09412 38.97638,0 7.08661,-7.08662 0,-38.97638 -7.08661,-7.08661 -38.97638,0 -7.08662,7.08661 0,38.97638 z"
         style="fill:#000000;fill-opacity:0.19607843;stroke:none;display:inline" /><path
         style="fill:#000000;fill-opacity:0.19607843;stroke:none;display:inline"
         d="m 382.67717,616.94452 38.97638,0 7.08661,-7.08662 0,-38.97638 -7.08661,-7.08661 -38.97638,0 -7.08662,7.08661 0,38.97638 z"
         id="path3060"
         inkscape:connector-curvature="0" /><path
         inkscape:connector-curvature="0"
         id="path3062"
         d="m 435.82678,616.94452 38.97638,0 7.08661,-7.08662 0,-38.97638 -7.08661,-7.08661 -38.97638,0 -7.08662,7.08661 0,38.97638 z"
         style="fill:#000000;fill-opacity:0.19607843;stroke:none;display:inline" /></g><g
       id="g3117"
       transform="translate(-88.582677,2.8569033e-6)"><path
         style="fill:#000000;fill-opacity:0.19607843;stroke:none;display:inline"
         d="m 325.98426,475.21223 38.97638,0 7.08661,-7.08662 0,-38.97638 -7.08661,-7.08661 -38.97638,0 -7.08662,7.08661 0,38.97638 z"
         id="path3064"
         inkscape:connector-curvature="0" /><path
         inkscape:connector-curvature="0"
         id="path3066"
         d="m 379.13386,475.21223 38.97638,0 7.08661,-7.08662 0,-38.97638 -7.08661,-7.08661 -38.97638,0 -7.08662,7.08661 0,38.97638 z"
         style="fill:#000000;fill-opacity:0.19607843;stroke:none;display:inline" /><path
         style="fill:#000000;fill-opacity:0.19607843;stroke:none;display:inline"
         d="m 379.13386,528.36184 38.97638,0 7.08661,-7.08662 0,-38.97638 -7.08661,-7.08661 -38.97638,0 -7.08662,7.08661 0,38.97638 z"
         id="path3068"
         inkscape:connector-curvature="0" /><path
         inkscape:connector-curvature="0"
         id="path3070"
         d="m 432.28347,528.36184 38.97638,0 7.08661,-7.08662 0,-38.97638 -7.08661,-7.08661 -38.97638,0 -7.08662,7.08661 0,38.97638 z"
         style="fill:#000000;fill-opacity:0.19607843;stroke:none;display:inline" /></g><g
       id="g3143"
       transform="matrix(0,-1,1,0,-439.77915,670.09412)"><path
         inkscape:connector-curvature="0"
         id="path3131"
         d="m 7.08662,492.92876 38.97638,0 7.08661,-7.08662 0,-38.97638 -7.08661,-7.08661 -38.97638,0 L 0,446.86576 0,485.84214 z"
         style="fill:#000000;fill-opacity:0.19607843;stroke:none;display:inline" /><path
         style="fill:#000000;fill-opacity:0.19607843;stroke:none;display:inline"
         d="m 60.23623,492.92876 38.97638,0 7.08661,-7.08662 0,-38.97638 -7.08661,-7.08661 -38.97638,0 -7.08662,7.08661 0,38.97638 z"
         id="path3133"
         inkscape:connector-curvature="0" /><path
         inkscape:connector-curvature="0"
         id="path3135"
         d="m 7.0866168,546.07837 38.9763802,0 7.08661,-7.08663 0,-38.97637 -7.08661,-7.08662 -38.9763802,0 -7.0866200033308,7.08662 0,38.97637 z"
         style="fill:#000000;fill-opacity:0.19607843;stroke:none;display:inline" /><path
         style="fill:#000000;fill-opacity:0.19607843;stroke:none;display:inline"
         d="m 113.38583,492.92876 38.97638,0 7.08661,-7.08662 0,-38.97638 -7.08661,-7.08661 -38.97638,0 -7.08662,7.08661 0,38.97638 z"
         id="path3137"
         inkscape:connector-curvature="0" /></g></g><g
     inkscape:groupmode="layer"
     id="layer2"
     inkscape:label="struts"
     style="display:inline"><rect
       style="color:#000000;fill:#ff0000;fill-opacity:0.19607843;fill-rule:nonzero;stroke:none;stroke-width:0.03543307000000000;marker:none;visibility:visible;display:inline;overflow:visible;enable-background:accumulate"
       id="rect3936"
       width="3.4013605"
       height="9.5238094"
       x="-4.0816326"
       y="541.52271"
       transform="translate(0,-1.2413595e-6)" /></g></svg>