<?xml version="1.0" encoding="UTF-8" standalone="no"?>
<!-- Created with Inkscape (http://www.inkscape.org/) -->

<svg
   xmlns:dc="http://purl.org/dc/elements/1.1/"
   xmlns:cc="http://creativecommons.org/ns#"
   xmlns:rdf="http://www.w3.org/1999/02/22-rdf-syntax-ns#"
   xmlns:svg="http://www.w3.org/2000/svg"
   xmlns="http://www.w3.org/2000/svg"
   xmlns:sodipodi="http://sodipodi.sourceforge.net/DTD/sodipodi-0.dtd"
   xmlns:inkscape="http://www.inkscape.org/namespaces/inkscape"
   width="100mm"
   height="100mm"
   viewBox="0 0 100 100"
   id="svg2"
   version="1.1"
   inkscape:version="0.91+devel r13724 custom"
   sodipodi:docname="tetris.svg">
  <defs
     id="defs4" />
  <sodipodi:namedview
     id="base"
     pagecolor="#ffffff"
     bordercolor="#666666"
     borderopacity="1.0"
     inkscape:pageopacity="0.0"
     inkscape:pageshadow="2"
     inkscape:zoom="1.4"
     inkscape:cx="228.48108"
     inkscape:cy="178.66078"
     inkscape:document-units="mm"
     inkscape:current-layer="svg2"
     showgrid="true"
     inkscape:window-width="1680"
     inkscape:window-height="1002"
     inkscape:window-x="0"
     inkscape:window-y="22"
     inkscape:window-maximized="0"
     inkscape:snap-nodes="false"
     inkscape:snap-bbox="true"
     inkscape:bbox-nodes="true">
    <inkscape:grid
       type="xygrid"
       id="grid3339"
       spacingx="1mm"
       spacingy="1mm"
       units="mm" />
  </sodipodi:namedview>
  <metadata
     id="metadata7">
    <rdf:RDF>
      <cc:Work
         rdf:about="">
        <dc:format>image/svg+xml</dc:format>
        <dc:type
           rdf:resource="http://purl.org/dc/dcmitype/StillImage" />
        <dc:title />
      </cc:Work>
    </rdf:RDF>
  </metadata>
  <g
     inkscape:groupmode="layer"
     id="layer3"
     inkscape:label="shape">
    <path
       style="display:inline;fill:#000000;fill-opacity:0.39215686;stroke:none"
       d="m 27.000088,49.999847 11.000031,0 2.000006,-2.00002 0,-11.00003 -2.000006,-2 -11.000031,0 -2.000007,2 0,11.00003 z"
       id="path2990"
       inkscape:connector-curvature="0" />
    <path
       style="display:inline;fill:#000000;fill-opacity:0.39215686;stroke:none"
       d="m 27.000088,34.999797 11.000031,0 2.000006,-2.00001 0,-11.00003 -2.000006,-2.00001 -11.000031,0 -2.000007,2.00001 0,11.00003 z"
       id="path2990-2"
       inkscape:connector-curvature="0" />
    <path
       style="display:inline;fill:#000000;fill-opacity:0.39215686;stroke:none"
       d="m 42.000132,49.999847 11.000036,0 2.000004,-2.00002 0,-11.00003 -2.000004,-2 -11.000036,0 -2.000007,2 0,11.00003 z"
       id="path2990-4"
       inkscape:connector-curvature="0" />
    <path
       style="display:inline;fill:#000000;fill-opacity:0.39215686;stroke:none"
       d="m 42.000132,34.999797 11.000036,0 2.000004,-2.00001 0,-11.00003 -2.000004,-2.00001 -11.000036,0 -2.000004,2.00001 0,11.00003 z"
       id="path2990-2-5"
       inkscape:connector-curvature="0" />
    <path
       style="color:#000000;display:inline;overflow:visible;visibility:visible;fill:#000000;fill-opacity:0.39215686;fill-rule:nonzero;stroke:none;stroke-width:1px;marker:none;enable-background:accumulate"
       d="m 38.000119,34.999797 2.000006,-2.00001 2.000007,2.00001 -2.000007,2 z"
       id="path2993"
       inkscape:connector-curvature="0" />
    <path
       style="display:inline;fill:#000000;fill-opacity:0.39215686;stroke:none"
       d="m 40.000123,-3.0003078 0,11.00003 2.000006,2 11.000036,0 2.000004,-2 0,-11.00003 -2.000004,-2.00001 -11.000036,0 z"
       id="path2990-2-5-3"
       inkscape:connector-curvature="0" />
    <path
       inkscape:connector-curvature="0"
       id="path3030"
       d="m 55.000169,-3.0003178 0,11.00004 2.000006,2 11.000036,0 2.000004,-2 0,-11.00004 -2.000004,-2 -11.000036,0 z"
       style="display:inline;fill:#000000;fill-opacity:0.39215686;stroke:none" />
    <path
       style="display:inline;fill:#000000;fill-opacity:0.39215686;stroke:none"
       d="m 70.000215,-3.0003178 0,11.00004 2.000007,2 11.000038,0 2.000004,-2 0,-11.00004 -2.000004,-2 -11.000038,0 z"
       id="path3032"
       inkscape:connector-curvature="0" />
    <path
       inkscape:connector-curvature="0"
       id="path3034"
       d="m 85.000264,-3.0003178 0,11.00003 2.000001,2.00001 11.000035,0 2.00001,-2.00001 0,-11.00003 -2.00001,-2 -11.000035,0 z"
       style="display:inline;fill:#000000;fill-opacity:0.39215686;stroke:none" />
    <path
       inkscape:connector-curvature="0"
       id="path3040"
       d="m 3.3e-6,-3.0003078 0,11.00003 2.000008,2 11.0000337,0 2.000005,-2 0,-11.00003 -2.000005,-2.00001 -11.0000337,0 z"
       style="display:inline;fill:#000000;fill-opacity:0.39215686;stroke:none" />
    <path
       style="display:inline;fill:#000000;fill-opacity:0.39215686;stroke:none"
       d="m 3.3e-6,11.999732 0,11.000035 2.000008,2 11.0000337,0 2.000005,-2 0,-11.000035 -2.000005,-2.0000098 -11.0000337,0 z"
       id="path3042"
       inkscape:connector-curvature="0" />
    <path
       inkscape:connector-curvature="0"
       id="path3044"
       d="m 15.000047,-3.0003078 0,11.00003 2.000008,2 11.000036,0 2.000002,-2 0,-11.00003 -2.000002,-2.00001 -11.000036,0 z"
       style="display:inline;fill:#000000;fill-opacity:0.39215686;stroke:none" />
    <path
       style="display:inline;fill:#000000;fill-opacity:0.39215686;stroke:none"
       d="m 3.3e-6,26.999777 0,11.00003 2.000008,2 11.0000337,0 2.000005,-2 0,-11.00003 -2.000005,-2.00001 -11.0000337,0 z"
       id="path3046"
       inkscape:connector-curvature="0" />
    <path
       inkscape:connector-curvature="0"
       id="path3048"
       d="m 68.000211,59.999887 -11.000036,0 -2.000003,2.00001 0,11.00004 2.000003,2 11.000036,0 2.000007,-2 0,-11.00004 z"
       style="display:inline;fill:#000000;fill-opacity:0.39215686;stroke:none" />
    <path
       style="display:inline;fill:#000000;fill-opacity:0.39215686;stroke:none"
       d="m 53.000165,59.999887 -11.000036,0 -2.000004,2 0,11.00004 2.000004,2.00001 11.000036,0 2.000007,-2.00001 0,-11.00004 z"
       id="path3050"
       inkscape:connector-curvature="0" />
    <path
       inkscape:connector-curvature="0"
       id="path3052"
       d="m 38.000116,59.999887 -11.000033,0 -2.000005,2 0,11.00004 2.000005,2.00001 11.000033,0 2.000009,-2.00001 0,-11.00004 z"
       style="display:inline;fill:#000000;fill-opacity:0.39215686;stroke:none" />
    <path
       style="display:inline;fill:#000000;fill-opacity:0.39215686;stroke:none"
       d="m 53.000165,74.999937 -11.000036,0 -2.000004,2.00001 0,11.00003 2.000004,2 11.000036,0 2.000007,-2 0,-11.00003 z"
       id="path3054"
       inkscape:connector-curvature="0" />
    <path
       inkscape:connector-curvature="0"
       id="path3056"
       d="m 67.000211,99.999997 11.00003,0 2.000012,-2.00001 0,-11.00003 -2.000012,-2 -11.00003,0 -2.000009,2 0,11.00003 z"
       style="display:inline;fill:#000000;fill-opacity:0.39215686;stroke:none" />
    <path
       style="display:inline;fill:#000000;fill-opacity:0.39215686;stroke:none"
       d="m 82.000254,99.999997 11.000036,0 2.00001,-2.00001 0,-11.00003 -2.00001,-2 -11.000036,0 -2.000009,2 0,11.00003 z"
       id="path3058"
       inkscape:connector-curvature="0" />
    <path
       inkscape:connector-curvature="0"
       id="path3060"
       d="m 82.000254,84.999957 11.000036,0 2.00001,-2.00001 0,-11.00004 -2.00001,-2 -11.000036,0 -2.000009,2 0,11.00004 z"
       style="display:inline;fill:#000000;fill-opacity:0.39215686;stroke:none" />
    <path
       style="display:inline;fill:#000000;fill-opacity:0.39215686;stroke:none"
       d="m 97.0003,84.999957 11.00004,0 2,-2.00001 0,-11.00004 -2,-2 -11.00004,0 -2,2 0,11.00004 z"
       id="path3062"
       inkscape:connector-curvature="0" />
    <path
       inkscape:connector-curvature="0"
       id="path3064"
       d="m 67.000211,44.999827 11.00003,0 2.000012,-2.00001 0,-11.00003 -2.000012,-2 -11.00003,0 -2.000009,2 0,11.00003 z"
       style="display:inline;fill:#000000;fill-opacity:0.39215686;stroke:none" />
    <path
       style="display:inline;fill:#000000;fill-opacity:0.39215686;stroke:none"
       d="m 82.000254,44.999827 11.000036,0 2.00001,-2.00001 0,-11.00003 -2.00001,-2 -11.000036,0 -2.000009,2 0,11.00003 z"
       id="path3066"
       inkscape:connector-curvature="0" />
    <path
       inkscape:connector-curvature="0"
       id="path3068"
       d="m 82.000254,59.999877 11.000036,0 2.00001,-2.00001 0,-11.00004 -2.00001,-2 -11.000036,0 -2.000009,2 0,11.00004 z"
       style="display:inline;fill:#000000;fill-opacity:0.39215686;stroke:none" />
    <path
       style="display:inline;fill:#000000;fill-opacity:0.39215686;stroke:none"
       d="m 97.0003,59.999877 11.00004,0 2,-2.00001 0,-11.00004 -2,-2 -11.00004,0 -2,2 0,11.00004 z"
       id="path3070"
       inkscape:connector-curvature="0" />
    <path
       style="display:inline;fill:#000000;fill-opacity:0.39215686;stroke:none"
       d="m 15.000047,97.999987 0,-11.00003 -2.000007,-2 -11.0000337,0 -2.0000063,2 0,11.00003 2.0000063,2.00001 11.0000337,0 z"
       id="path3131"
       inkscape:connector-curvature="0" />
    <path
       inkscape:connector-curvature="0"
       id="path3133"
       d="m 15.000047,82.999947 0,-11.00004 -2.000007,-2 -11.0000337,0 -2.0000063,2 0,11.00004 2.0000063,2.00001 11.0000337,0 z"
       style="display:inline;fill:#000000;fill-opacity:0.39215686;stroke:none" />
    <path
       style="display:inline;fill:#000000;fill-opacity:0.39215686;stroke:none"
       d="m 30.000093,97.999987 0,-11.00003 -2.000007,-2 -11.000034,0 -2.000007,2 0,11.00003 2.000007,2.00001 11.000034,0 z"
       id="path3135"
       inkscape:connector-curvature="0" />
    <path
       inkscape:connector-curvature="0"
       id="path3137"
       d="m 15.000047,67.999897 0,-11.00003 -2.000007,-2 -11.0000337,0 -2.0000063,2 0,11.00003 2.0000063,2.00001 11.0000337,0 z"
       style="display:inline;fill:#000000;fill-opacity:0.39215686;stroke:none" />
  </g>
  <g
     inkscape:groupmode="layer"
     id="layer2"
     inkscape:label="struts" />
  <g
     inkscape:groupmode="layer"
     id="layer4"
     inkscape:label="fillings">
    <path
       style="fill:#ff00ff;fill-opacity:0.39215686;fill-rule:evenodd;stroke:none;stroke-width:1px;stroke-linecap:butt;stroke-linejoin:miter;stroke-opacity:1"
       d="m 14.999999,12.000002 0,-2 2.000001,0 L 14.999999,8.0000022 13,10.000002 Z"
       id="path4211"
       inkscape:connector-curvature="0" />
    <path
       style="fill:#ff00ff;fill-opacity:0.39215686;fill-rule:evenodd;stroke:none;stroke-width:1px;stroke-linecap:butt;stroke-linejoin:miter;stroke-opacity:1"
       d="m 14.999999,82.999997 -1.999999,2 1.999999,2 2.000001,-2 -2.000001,0 z"
       id="path4213"
       inkscape:connector-curvature="0" />
    <path
       style="fill:#ff00ff;fill-opacity:0.39215686;fill-rule:evenodd;stroke:none;stroke-width:1px;stroke-linecap:butt;stroke-linejoin:miter;stroke-opacity:1"
       d="m 39.999998,76.999997 2.000001,-2 -2.000001,-2 -1.999998,2 1.999998,0 z"
       id="path4215"
       inkscape:connector-curvature="0" />
    <path
       style="fill:#ff00ff;fill-opacity:0.39215686;fill-rule:evenodd;stroke:none;stroke-width:1px;stroke-linecap:butt;stroke-linejoin:miter;stroke-opacity:1"
       d="m 55,76.999997 0,-2 1.999998,0 -1.999998,-2 -2.000002,2 z"
       id="path4217"
       inkscape:connector-curvature="0" />
    <path
       style="fill:#ff00ff;fill-opacity:0.39215686;fill-rule:evenodd;stroke:none;stroke-width:1px;stroke-linecap:butt;stroke-linejoin:miter;stroke-opacity:1"
       d="m 77.999998,84.999997 1.999999,2 2.000001,-2 -2.000001,-2 0,2 z"
       id="path4221"
       inkscape:connector-curvature="0" />
    <path
       style="fill:#ff00ff;fill-opacity:0.39215686;fill-rule:evenodd;stroke:none;stroke-width:1px;stroke-linecap:butt;stroke-linejoin:miter;stroke-opacity:1"
       d="m 95,86.999997 0,-2 1.99999,0 -1.99999,-2 -2,2 z"
       id="path4223"
       inkscape:connector-curvature="0" />
    <path
       style="fill:#ff00ff;fill-opacity:0.39215686;fill-rule:evenodd;stroke:none;stroke-width:1px;stroke-linecap:butt;stroke-linejoin:miter;stroke-opacity:1"
       d="m 79.999997,46.999997 2.000001,-2 -2.000001,-2 -1.999999,2 1.999999,0 z"
       id="path4225"
       inkscape:connector-curvature="0" />
    <path
       style="fill:#ff00ff;fill-opacity:0.39215686;fill-rule:evenodd;stroke:none;stroke-width:1px;stroke-linecap:butt;stroke-linejoin:miter;stroke-opacity:1"
       d="m 95,46.999997 1.99999,-2 -1.99999,0 0,-2 -2,2 z"
       id="path4227"
       inkscape:connector-curvature="0" />
  </g>
</svg>
